<svg width="687" height="269" viewBox="0 0 687 269" fill="none" xmlns="http://www.w3.org/2000/svg">
<ellipse cx="88.2659" cy="44.1594" rx="30.5" ry="30" fill="#FF4C7C"/>
<path d="M167.255 21.3741L101.641 209.063L37.5184 172.041L167.255 21.3741Z" fill="#FF4C7C"/>
<ellipse cx="30.5" cy="30" rx="30.5" ry="30" transform="matrix(-1 0 0 1 265.276 14.3188)" fill="#236CFF"/>
<path d="M155.787 21.5336L221.401 209.222L285.523 172.201L155.787 21.5336Z" fill="#236CFF"/>
<path d="M355.758 68.7274H368.686V103.799H355.758V68.7274ZM337.838 81.6554H387.118V92.7914H337.838V81.6554ZM386.606 87.6714H417.582V100.855H386.606V87.6714ZM338.99 142.583H386.094V153.719H338.99V142.583ZM379.694 61.8154L387.246 72.6954C382.809 73.6341 377.902 74.4874 372.526 75.2554C367.235 75.9381 361.859 76.5354 356.398 77.0474C350.937 77.4741 345.689 77.8154 340.654 78.0714C340.398 76.5354 339.929 74.7861 339.246 72.8234C338.649 70.7754 338.009 69.0261 337.326 67.5754C342.19 67.1488 347.182 66.6794 352.302 66.1674C357.507 65.5701 362.499 64.8874 367.278 64.1194C372.057 63.3514 376.195 62.5834 379.694 61.8154ZM336.174 162.935C340.441 162.679 345.262 162.338 350.638 161.911C356.099 161.485 361.859 161.015 367.918 160.503C374.062 159.991 380.163 159.479 386.222 158.967L386.35 170.103C377.902 171.127 369.411 172.109 360.878 173.047C352.43 173.986 344.878 174.797 338.222 175.479L336.174 162.935ZM412.974 87.6714H425.774C425.774 87.6714 425.774 88.0554 425.774 88.8234C425.774 89.5914 425.774 90.4874 425.774 91.5114C425.774 92.4501 425.774 93.2181 425.774 93.8154C425.433 107.213 425.134 118.562 424.878 127.863C424.707 137.165 424.409 144.802 423.982 150.775C423.641 156.749 423.214 161.399 422.702 164.727C422.19 167.97 421.465 170.231 420.526 171.511C419.331 173.474 418.094 174.839 416.814 175.607C415.534 176.461 413.998 177.058 412.206 177.399C410.585 177.655 408.665 177.826 406.446 177.911C404.313 177.997 402.009 177.997 399.534 177.911C399.449 175.949 399.065 173.687 398.382 171.127C397.785 168.567 396.974 166.391 395.95 164.599C397.913 164.77 399.705 164.898 401.326 164.983C402.947 165.069 404.27 165.111 405.294 165.111C406.062 165.111 406.745 164.941 407.342 164.599C407.939 164.258 408.494 163.661 409.006 162.807C409.518 161.869 409.987 159.991 410.414 157.175C410.841 154.274 411.182 150.093 411.438 144.631C411.779 139.085 412.035 131.917 412.206 123.127C412.462 114.338 412.718 103.543 412.974 90.7434V87.6714ZM349.102 121.591V127.351H375.598V121.591H349.102ZM349.102 107.511V113.271H375.598V107.511H349.102ZM339.246 98.2954H385.838V136.567H339.246V98.2954ZM357.038 101.495H367.278V133.111H368.558V164.599H355.758V133.111H357.038V101.495ZM393.262 58.8714H406.19V103.287C406.19 109.431 405.934 115.874 405.422 122.615C404.995 129.357 404.099 136.098 402.734 142.839C401.454 149.581 399.491 156.066 396.846 162.295C394.201 168.525 390.659 174.157 386.222 179.191C385.454 178.338 384.43 177.399 383.15 176.375C381.87 175.351 380.547 174.327 379.182 173.303C377.817 172.365 376.579 171.597 375.47 170.999C379.481 166.391 382.681 161.271 385.07 155.639C387.459 150.007 389.209 144.162 390.318 138.103C391.513 132.045 392.281 126.071 392.622 120.183C393.049 114.21 393.262 108.621 393.262 103.415V58.8714ZM326.958 58.8714L340.654 62.7114C338.521 70.0501 335.918 77.4741 332.846 84.9834C329.859 92.4928 326.531 99.6181 322.862 106.359C319.278 113.101 315.481 119.031 311.47 124.151C311.129 122.871 310.531 121.207 309.678 119.159C308.91 117.026 308.057 114.893 307.118 112.759C306.179 110.541 305.326 108.791 304.558 107.511C307.63 103.415 310.574 98.7648 313.39 93.5594C316.206 88.3541 318.766 82.8074 321.07 76.9194C323.459 70.9461 325.422 64.9301 326.958 58.8714ZM318.51 94.0714L332.078 80.5034V80.6314V178.935H318.51V94.0714ZM446.894 76.4074C449.539 76.4928 452.014 76.5781 454.318 76.6634C456.707 76.6634 458.755 76.6634 460.462 76.6634C461.827 76.6634 463.918 76.6634 466.734 76.6634C469.635 76.6634 473.006 76.6634 476.846 76.6634C480.686 76.6634 484.782 76.6634 489.134 76.6634C493.486 76.6634 497.838 76.6634 502.19 76.6634C506.627 76.6634 510.766 76.6634 514.606 76.6634C518.446 76.6634 521.774 76.6634 524.59 76.6634C527.491 76.6634 529.582 76.6634 530.862 76.6634C532.483 76.6634 534.403 76.6634 536.622 76.6634C538.926 76.5781 541.23 76.4928 543.534 76.4074C543.449 78.3701 543.363 80.4608 543.278 82.6794C543.278 84.8128 543.278 86.8608 543.278 88.8234C543.278 90.0181 543.278 91.8954 543.278 94.4554C543.278 96.9301 543.278 99.9168 543.278 103.415C543.278 106.829 543.278 110.498 543.278 114.423C543.278 118.263 543.278 122.146 543.278 126.071C543.278 129.997 543.278 133.709 543.278 137.207C543.278 140.621 543.278 143.607 543.278 146.167C543.278 148.642 543.278 150.434 543.278 151.543C543.278 152.823 543.278 154.445 543.278 156.407C543.363 158.285 543.406 160.205 543.406 162.167C543.406 164.045 543.406 165.709 543.406 167.159C543.491 168.525 543.534 169.25 543.534 169.335H525.87C525.87 169.165 525.87 168.141 525.87 166.263C525.955 164.301 525.998 161.997 525.998 159.351C526.083 156.706 526.126 154.231 526.126 151.927C526.126 150.818 526.126 148.941 526.126 146.295C526.126 143.65 526.126 140.535 526.126 136.951C526.126 133.367 526.126 129.57 526.126 125.559C526.126 121.549 526.126 117.623 526.126 113.783C526.126 109.943 526.126 106.445 526.126 103.287C526.126 100.13 526.126 97.6128 526.126 95.7354C526.126 93.8581 526.126 92.9194 526.126 92.9194H464.302C464.302 92.9194 464.302 93.8581 464.302 95.7354C464.302 97.6128 464.302 100.13 464.302 103.287C464.302 106.359 464.302 109.858 464.302 113.783C464.302 117.623 464.302 121.549 464.302 125.559C464.302 129.485 464.302 133.282 464.302 136.951C464.302 140.535 464.302 143.65 464.302 146.295C464.302 148.941 464.302 150.818 464.302 151.927C464.302 153.463 464.302 155.213 464.302 157.175C464.302 159.053 464.302 160.887 464.302 162.679C464.387 164.471 464.43 165.965 464.43 167.159C464.43 168.439 464.43 169.165 464.43 169.335H446.766C446.766 169.165 446.766 168.439 446.766 167.159C446.851 165.879 446.894 164.301 446.894 162.423C446.979 160.546 447.022 158.626 447.022 156.663C447.107 154.701 447.15 152.951 447.15 151.415C447.15 150.306 447.15 148.514 447.15 146.039C447.15 143.479 447.15 140.45 447.15 136.951C447.15 133.453 447.15 129.783 447.15 125.943C447.15 122.018 447.15 118.093 447.15 114.167C447.15 110.242 447.15 106.573 447.15 103.159C447.15 99.6608 447.15 96.6741 447.15 94.1994C447.15 91.7248 447.15 89.9328 447.15 88.8234C447.15 87.0314 447.15 84.9834 447.15 82.6794C447.15 80.2901 447.065 78.1994 446.894 76.4074ZM532.526 146.039V162.423H455.598V146.039H532.526ZM658.478 62.3274C659.587 63.8634 660.739 65.6981 661.934 67.8314C663.214 69.9648 664.451 72.0981 665.646 74.2314C666.841 76.3648 667.822 78.2421 668.59 79.8634L658.35 84.2154C657.07 81.5701 655.491 78.5834 653.614 75.2554C651.822 71.8421 650.073 68.8981 648.366 66.4234L658.478 62.3274ZM673.582 56.5674C674.691 58.1034 675.886 59.9808 677.166 62.1994C678.531 64.3328 679.811 66.4661 681.006 68.5994C682.286 70.6474 683.267 72.4394 683.95 73.9754L673.838 78.3274C672.473 75.5968 670.851 72.5674 668.974 69.2394C667.097 65.9114 665.262 63.0528 663.47 60.6634L673.582 56.5674ZM669.998 90.4874C669.23 91.6821 668.462 93.1328 667.694 94.8394C666.926 96.4608 666.286 98.0821 665.774 99.7034C664.665 103.458 663.086 107.767 661.038 112.631C658.99 117.41 656.515 122.359 653.614 127.479C650.713 132.599 647.299 137.591 643.374 142.455C637.315 149.794 630.19 156.45 621.998 162.423C613.891 168.397 603.822 173.773 591.79 178.551L576.686 164.983C585.39 162.338 592.899 159.394 599.214 156.151C605.529 152.823 611.033 149.239 615.726 145.399C620.419 141.559 624.601 137.506 628.27 133.239C631.171 129.911 633.859 126.157 636.334 121.975C638.894 117.794 641.027 113.613 642.734 109.431C644.526 105.25 645.763 101.581 646.446 98.4234H603.31L609.198 83.9594C610.307 83.9594 612.142 83.9594 614.702 83.9594C617.262 83.9594 620.121 83.9594 623.278 83.9594C626.435 83.9594 629.55 83.9594 632.622 83.9594C635.779 83.9594 638.553 83.9594 640.942 83.9594C643.331 83.9594 644.91 83.9594 645.678 83.9594C647.726 83.9594 649.731 83.8314 651.694 83.5754C653.742 83.2341 655.449 82.8501 656.814 82.4234L669.998 90.4874ZM628.27 70.2634C626.734 72.4821 625.241 74.8714 623.79 77.4314C622.339 79.9914 621.23 81.9541 620.462 83.3194C617.561 88.4394 613.977 93.7728 609.71 99.3194C605.443 104.781 600.622 110.114 595.246 115.319C589.955 120.439 584.238 125.133 578.094 129.399L563.758 118.647C569.39 115.234 574.339 111.693 578.606 108.023C582.873 104.354 586.585 100.727 589.742 97.1434C592.899 93.4741 595.63 89.9754 597.934 86.6474C600.238 83.2341 602.158 80.1621 603.694 77.4314C604.718 75.8954 605.785 73.8474 606.894 71.2874C608.089 68.6421 608.942 66.2528 609.454 64.1194L628.27 70.2634Z" fill="black"/>
</svg>
